<svg xmlns="http://www.w3.org/2000/svg" viewBox="0 0 1060 1420" font-family="Tahoma, 'Noto Sans Thai', 'Sarabun', sans-serif">
<rect x="0" y="0" width="1060" height="1420" fill="#ffffff"/>
<defs>
<marker id="arr" viewBox="0 0 10 10" refX="9" refY="5" markerWidth="7" markerHeight="7" orient="auto">
<path d="M0,0 L10,5 L0,10 z" fill="#444"/></marker></defs>
<rect x="230.0" y="32.0" width="360" height="56" rx="28.0" fill="#2e7d32" stroke="#1b5e20" stroke-width="2"/>
<text x="410" y="65.2" font-size="15" font-weight="normal" fill="#ffffff" text-anchor="middle">รับแจ้ง / ขอใช้สิทธิ กรณีว่างงาน</text>
<polygon points="410,123 550,195 410,267 270,195" fill="#fff3cd" stroke="#e0a800" stroke-width="2"/>
<text x="410" y="190.4" font-size="14" font-weight="normal" fill="#3d3000" text-anchor="middle">ตรวจสอบ</text><text x="410" y="209.4" font-size="14" font-weight="normal" fill="#3d3000" text-anchor="middle">ความซ้ำซ้อน</text>
<rect x="615.0" y="163.0" width="290" height="64" rx="8" fill="#cfe2ff" stroke="#0d6efd" stroke-width="2"/>
<text x="760" y="190.8" font-size="15" font-weight="normal" fill="#0a2a5c" text-anchor="middle">วินิจฉัยและจ่ายสิทธิตามปกติ</text><text x="760" y="209.8" font-size="15" font-weight="normal" fill="#0a2a5c" text-anchor="middle">(โอนผ่านธนาคาร)</text>
<rect x="655.0" y="308.0" width="210" height="54" rx="27.0" fill="#495057" stroke="#343a40" stroke-width="2"/>
<text x="760" y="340.2" font-size="15" font-weight="normal" fill="#ffffff" text-anchor="middle">จบ: จ่ายตามปกติ</text>
<polygon points="282.0,313.0 560.0,313.0 538.0,377.0 260.0,377.0" fill="#f8d7da" stroke="#c82333" stroke-width="2"/>
<text x="410" y="350.2" font-size="15" font-weight="normal" fill="#5c1014" text-anchor="middle">แจ้งเตือนความซ้ำซ้อน (Alert)</text>
<polygon points="410,410 562,490 410,570 258,490" fill="#fff3cd" stroke="#e0a800" stroke-width="2"/>
<text x="410" y="485.4" font-size="14" font-weight="normal" fill="#3d3000" text-anchor="middle">ตรวจสอบสถานะการจ่าย</text><text x="410" y="504.4" font-size="14" font-weight="normal" fill="#3d3000" text-anchor="middle">ของคำขอเดิม</text>
<rect x="40.0" y="457.0" width="200" height="66" rx="8" fill="#cfe2ff" stroke="#0d6efd" stroke-width="2"/>
<text x="140" y="495.2" font-size="15" font-weight="normal" fill="#0a2a5c" text-anchor="middle">ทำจ่ายให้ครบก่อน</text>
<rect x="630.0" y="455.0" width="260" height="70" rx="8" fill="#cfe2ff" stroke="#0d6efd" stroke-width="2"/>
<text x="760" y="485.8" font-size="15" font-weight="normal" fill="#0a2a5c" text-anchor="middle">ทำเรื่องขอเรียกเงินคืน</text><text x="760" y="504.8" font-size="15" font-weight="normal" fill="#0a2a5c" text-anchor="middle">(คำขอเดิมติดสถานะ W)</text>
<rect x="225.0" y="610.0" width="370" height="70" rx="8" fill="#d1e7dd" stroke="#198754" stroke-width="2"/>
<rect x="230.0" y="615.0" width="360" height="60" rx="4" fill="none" stroke="#198754" stroke-width="1.3"/>
<text x="410" y="640.8" font-size="15" font-weight="normal" fill="#0b3d28" text-anchor="middle">รับแจ้งใหม่ และวินิจฉัย</text><text x="410" y="659.8" font-size="15" font-weight="normal" fill="#0b3d28" text-anchor="middle">(วินิจฉัยได้แม้คำขอเดิมติด W)</text>
<polygon points="410,724 550,800 410,876 270,800" fill="#fff3cd" stroke="#e0a800" stroke-width="2"/>
<text x="410" y="795.4" font-size="14" font-weight="normal" fill="#3d3000" text-anchor="middle">วินิจฉัยผ่าน</text><text x="410" y="814.4" font-size="14" font-weight="normal" fill="#3d3000" text-anchor="middle">หรือไม่?</text>
<rect x="40.0" y="773.0" width="200" height="54" rx="27.0" fill="#495057" stroke="#343a40" stroke-width="2"/>
<text x="140" y="805.2" font-size="15" font-weight="normal" fill="#ffffff" text-anchor="middle">จบ: ยุติคำขอ</text>
<polygon points="410,891 562,975 410,1059 258,975" fill="#fff3cd" stroke="#e0a800" stroke-width="2"/>
<text x="410" y="970.4" font-size="14" font-weight="normal" fill="#3d3000" text-anchor="middle">คำขอเดิมติด</text><text x="410" y="989.4" font-size="14" font-weight="normal" fill="#3d3000" text-anchor="middle">เรียกเงินคืน (W)?</text>
<rect x="630.0" y="940.0" width="260" height="70" rx="8" fill="#cfe2ff" stroke="#0d6efd" stroke-width="2"/>
<text x="760" y="970.8" font-size="15" font-weight="normal" fill="#0a2a5c" text-anchor="middle">จ่ายเงินตามปกติ</text><text x="760" y="989.8" font-size="15" font-weight="normal" fill="#0a2a5c" text-anchor="middle">(โอนผ่านธนาคาร)</text>
<rect x="210.0" y="1112.0" width="400" height="76" rx="8" fill="#cfe2ff" stroke="#0d6efd" stroke-width="2"/>
<text x="410" y="1145.8" font-size="15" font-weight="normal" fill="#0a2a5c" text-anchor="middle">เปลี่ยนวิธีรับเงินเป็น รับ ณ สำนักงาน</text><text x="410" y="1164.8" font-size="15" font-weight="normal" fill="#0a2a5c" text-anchor="middle">(จากปกติโอนผ่านธนาคาร)</text>
<rect x="205.0" y="1250.0" width="410" height="70" rx="8" fill="#d1e7dd" stroke="#198754" stroke-width="2"/>
<text x="410" y="1280.8" font-size="15" font-weight="normal" fill="#0b3d28" text-anchor="middle">ผู้ประกันตนคืนเงินส่วนเกิน</text><text x="410" y="1299.8" font-size="15" font-weight="normal" fill="#0b3d28" text-anchor="middle">และรับเงินสิทธิใหม่ ณ สำนักงาน</text>
<rect x="650.0" y="1258.0" width="220" height="54" rx="27.0" fill="#495057" stroke="#343a40" stroke-width="2"/>
<text x="760" y="1290.2" font-size="15" font-weight="normal" fill="#ffffff" text-anchor="middle">จบ: รับเงิน ณ สำนักงาน</text>
<path d="M 410,88 L 410,121" fill="none" stroke="#444" stroke-width="2" marker-end="url(#arr)"/>
<path d="M 550,195 L 615,195" fill="none" stroke="#444" stroke-width="2" marker-end="url(#arr)"/>
<rect x="536" y="167" width="94" height="22" rx="5" fill="#ffffff" stroke="#bbb" stroke-width="1"/>
<text x="582.5" y="183" font-size="13" fill="#222" text-anchor="middle">ไม่ซ้ำซ้อน</text>
<path d="M 760,227 L 760,308" fill="none" stroke="#444" stroke-width="2" marker-end="url(#arr)"/>
<path d="M 410,267 L 410,311" fill="none" stroke="#444" stroke-width="2" marker-end="url(#arr)"/>
<rect x="351" y="279" width="119" height="22" rx="5" fill="#ffffff" stroke="#bbb" stroke-width="1"/>
<text x="410" y="295" font-size="13" fill="#222" text-anchor="middle">พบความซ้ำซ้อน</text>
<path d="M 410,377 L 410,408" fill="none" stroke="#444" stroke-width="2" marker-end="url(#arr)"/>
<path d="M 258,490 L 240,490" fill="none" stroke="#444" stroke-width="2" marker-end="url(#arr)"/>
<rect x="190" y="462" width="119" height="22" rx="5" fill="#ffffff" stroke="#bbb" stroke-width="1"/>
<text x="249.0" y="478" font-size="13" fill="#222" text-anchor="middle">จ่ายยังไม่ครบ</text>
<path d="M 562,490 L 630,490" fill="none" stroke="#444" stroke-width="2" marker-end="url(#arr)"/>
<rect x="557" y="462" width="78" height="22" rx="5" fill="#ffffff" stroke="#bbb" stroke-width="1"/>
<text x="596.0" y="478" font-size="13" fill="#222" text-anchor="middle">จ่ายเกิน</text>
<path d="M 140,523 L 140,645 L 225,645" fill="none" stroke="#444" stroke-width="2" marker-end="url(#arr)"/>
<path d="M 760,525 L 760,645 L 595,645" fill="none" stroke="#444" stroke-width="2" marker-end="url(#arr)"/>
<path d="M 410,680 L 410,721" fill="none" stroke="#444" stroke-width="2" marker-end="url(#arr)"/>
<path d="M 270,800 L 240,800" fill="none" stroke="#444" stroke-width="2" marker-end="url(#arr)"/>
<rect x="220" y="772" width="69" height="22" rx="5" fill="#ffffff" stroke="#bbb" stroke-width="1"/>
<text x="255.0" y="788" font-size="13" fill="#222" text-anchor="middle">ไม่ผ่าน</text>
<path d="M 410,876 L 410,890" fill="none" stroke="#444" stroke-width="2" marker-end="url(#arr)"/>
<rect x="388" y="834" width="45" height="22" rx="5" fill="#ffffff" stroke="#bbb" stroke-width="1"/>
<text x="410" y="850" font-size="13" fill="#222" text-anchor="middle">ผ่าน</text>
<path d="M 562,975 L 630,975" fill="none" stroke="#444" stroke-width="2" marker-end="url(#arr)"/>
<rect x="557" y="947" width="78" height="22" rx="5" fill="#ffffff" stroke="#bbb" stroke-width="1"/>
<text x="596.0" y="963" font-size="13" fill="#222" text-anchor="middle">ไม่ติด W</text>
<path d="M 760,1010 L 760,1255" fill="none" stroke="#444" stroke-width="2" marker-end="url(#arr)"/>
<path d="M 410,1059 L 410,1111" fill="none" stroke="#444" stroke-width="2" marker-end="url(#arr)"/>
<rect x="384" y="1074" width="53" height="22" rx="5" fill="#ffffff" stroke="#bbb" stroke-width="1"/>
<text x="410" y="1090" font-size="13" fill="#222" text-anchor="middle">ติด W</text>
<path d="M 410,1188 L 410,1249" fill="none" stroke="#444" stroke-width="2" marker-end="url(#arr)"/>
<path d="M 615,1285 L 650,1285" fill="none" stroke="#444" stroke-width="2" marker-end="url(#arr)"/>
<text x="40" y="36" font-size="22" font-weight="bold" fill="#111">Flow: การจัดการความซ้ำซ้อนการขอสิทธิ กรณีว่างงาน — สำนักงานประกันสังคม</text>
</svg>